/* XPM */
static char * hangup_xpm[] = {
"16 14 2 1",
" 	c None",
".	c #E20000",
"       ..       ",
"       ..       ",
"       ..       ",
"     . .. .     ",
"     ......     ",
"      ....      ",
"       ..       ",
"                ",
"                ",
"  ............  ",
" .............. ",
".....      .....",
".....       ....",
" ..          .. "};
