/* XPM */
static char *icon48x48[] = {
/* columns rows colors chars-per-pixel */
"48 48 202 2",
"   c black",
".  c #000100",
"X  c #010101",
"o  c #010201",
"O  c #020202",
"+  c #020302",
"@  c gray1",
"#  c #030403",
"$  c #040404",
"%  c #040504",
"&  c gray2",
"*  c #050605",
"=  c #060606",
"-  c #060706",
";  c #070707",
":  c #070807",
">  c gray3",
",  c #080908",
"<  c #090909",
"1  c #0B0B0B",
"2  c #0C0C0C",
"3  c #0C0D0C",
"4  c #0D0E0D",
"5  c #0E0E0E",
"6  c #0E0F0E",
"7  c #0F100F",
"8  c #101110",
"9  c #111211",
"0  c gray7",
"q  c #131413",
"w  c gray8",
"e  c #141514",
"r  c #171817",
"t  c #181918",
"y  c #191A19",
"u  c gray11",
"i  c #1C1D1C",
"p  c #1E1F1E",
"a  c #202120",
"s  c #212221",
"d  c #222222",
"f  c gray14",
"g  c gray16",
"h  c #2B2C2B",
"j  c #2C2C2C",
"k  c #2C2D2C",
"l  c #2D2E2D",
"z  c #2E2F2E",
"x  c #2F302F",
"c  c #313131",
"v  c #313231",
"b  c #323332",
"n  c #343434",
"m  c #353635",
"M  c #373837",
"N  c gray22",
"B  c #393939",
"V  c #393A39",
"C  c gray23",
"Z  c gray24",
"A  c #3E3F3E",
"S  c #404140",
"D  c #434343",
"F  c #434443",
"G  c gray27",
"H  c #454645",
"J  c gray29",
"K  c #4B4C4B",
"L  c #4C4C4C",
"P  c #4C4D4C",
"I  c #4E4F4E",
"U  c gray31",
"Y  c #4F504F",
"T  c #505150",
"R  c #515251",
"E  c gray32",
"W  c #525352",
"Q  c #535453",
"!  c gray33",
"~  c #565756",
"^  c gray35",
"/  c #5A5A5A",
"(  c #5A5B5A",
")  c #5B5B5B",
"_  c #5C5D5C",
"`  c gray37",
"'  c #5F5F5F",
"]  c gray39",
"[  c gray40",
"{  c DimGray",
"}  c #696A69",
"|  c #6A6B6A",
" . c #6D6D6D",
".. c gray43",
"X. c #707170",
"o. c #717171",
"O. c #727272",
"+. c #747474",
"@. c gray46",
"#. c #757675",
"$. c #777777",
"%. c gray47",
"&. c #787978",
"*. c #797A79",
"=. c #7A7B7A",
"-. c #7C7C7C",
";. c #7C7D7C",
":. c gray49",
">. c #7E7E7E",
",. c #7F807F",
"<. c #808080",
"1. c #838383",
"2. c #848484",
"3. c #868686",
"4. c gray53",
"5. c #888988",
"6. c #8B8B8B",
"7. c #8D8E8D",
"8. c gray56",
"9. c #949594",
"0. c #959595",
"q. c gray59",
"w. c #969796",
"e. c #979797",
"r. c gray60",
"t. c #9A9A9A",
"y. c #9B9B9B",
"u. c gray62",
"i. c #9F9F9F",
"p. c #A2A2A2",
"a. c gray64",
"s. c #A4A5A4",
"d. c #A5A5A5",
"f. c #A6A7A6",
"g. c #AAAAAA",
"h. c #ACACAC",
"j. c gray68",
"k. c #AEAEAE",
"l. c #AFAFAF",
"z. c gray69",
"x. c #B2B2B2",
"c. c gray70",
"v. c #B4B4B4",
"b. c gray71",
"n. c #B6B7B6",
"m. c gray72",
"M. c #B9B9B9",
"N. c #B9BAB9",
"B. c #BBBBBB",
"V. c gray74",
"C. c gray76",
"Z. c #C3C3C3",
"A. c gray78",
"S. c gray79",
"D. c #CACACA",
"F. c #CBCBCB",
"G. c #CDCDCD",
"H. c gray81",
"J. c #D0D0D0",
"K. c gray82",
"L. c LightGray",
"P. c gray83",
"I. c #D5D5D5",
"U. c gray84",
"Y. c #D7D7D7",
"T. c gray85",
"R. c #DADADA",
"E. c gray86",
"W. c #DDDDDD",
"Q. c #DDDEDD",
"!. c #DFDFDF",
"~. c gray88",
"^. c #E1E1E1",
"/. c #E2E2E2",
"(. c #E2E3E2",
"). c gray89",
"_. c #E4E4E4",
"`. c gray90",
"'. c #E7E7E7",
"]. c gray91",
"[. c gray92",
"{. c #ECECEC",
"}. c gray93",
"|. c #EEEEEE",
" X c #EFEFEF",
".X c gray94",
"XX c #F1F1F1",
"oX c gray95",
"OX c #F3F3F3",
"+X c #F4F4F4",
"@X c gray96",
"#X c gray97",
"$X c #F7F8F7",
"%X c #F8F8F8",
"&X c #F9F9F9",
"*X c gray98",
"=X c #FBFBFB",
"-X c gray99",
";X c #FDFDFD",
":X c #FEFEFE",
">X c #FEFFFE",
",X c gray100",
/* pixels */
",X,X,X,X,X,X,X,X,X,X,X,X,X,X,X,X,X,X,X,X,X,X,X,X,X,X,X,X,X,X,X,X,X,X,X,X,X,X,X,X,X,X,X,X,X,X,X,X",
",X,X,X,X,X,X,X,X,X,X,X,X,X,X,X,X,X,X,X,X,X,X,X,X,X,X,X,X,X,X,X,X,X,X,X,X,X,X,X,X,X,X,X,X,X,X,X,X",
",X,X,X,X,X,X,X,X,X,X,X,X,X,X,X,X,X,X,X,X,X,X,X,X,X,X,X,X,X,X,X,X,X,X,X,X,X,X,X,X,X,X,X,X,X,X,X,X",
",X,X,X,X,X,X,X,X,X,X,X,X,X,X,X,X,X,X,X,X,X,X,X,X,X,X,X,X,X,X,X,X,X,X,X,X,X,X,X,X,X,X,X,X,X,X,X,X",
",X,X,X,X,X,X,X,X,X,X,X,X,X,X,X,X,X,X,X,X,X,X,X,X,X,X,X,X,X,X,X,X,X,X,X,X,X,X,X,X,X,X,X,X,X,X,X,X",
",X,X,X,X,X,X,X,X,X,X,X,X,X,X,X,X,X,X,X,X,X,X,X,X,X,X,X,X,X,X,X,X,X,X,X,X,X,X,X,X,X,X,X,X,X,X,X,X",
",X,X,X,X,X,X,X,X,X,X,X,X,X,X,X,X,X,X,X,X,X,X,X,X,X,X,X,X,X,X,X,X,X,X,X,X,X,X,X,X,X,X,X,X,X,X,X,X",
",X,X,X,X,X,X,X,X,X,X,X,X,X,X,X,X,X,X,X,X,X,X,X,X,X,X,X,X,X,X,X,X,X,X,X,X,X,X,X,X,X,X,X,X,X,X,X,X",
",X,X,X,X,X,X,X,X,X,X,X,X,X,X,X,X,X,X,X,X,X,X,X,X,X,X,X,X,X,X,X,X,X,X,X,X,X,X,X,X,X,X,X,X,X,X,X,X",
",X,X,X,X,X,X,X,X,X,X,X,X,X,X,X,X,X,X,X,X,X,X,X,X,X,X,X,X,X,X,X,X,X,X,X,X,X,X,X,X,X,X,X,X,X,X,X,X",
",X,X,X,X,X,X,X,X,X,X,X,X,X,X,X,X,X,X,X,X,X,X,X,X,X,X,X,X,X,X,X,X,X,X,X,X,X,X,X,X,X,X,X,X,X,X,X,X",
",X,X,X,X,X,X,X,X,X'.x.6.$.$.p.|.,X,X,X,X,X,X,X,X,X,X,X,X,X,X,X,X,X,X,X,X,X,X,X,X,X,X,X,X,X,X,X,X",
",X,X,X,X,X,X,Xm.G &           e g.,X,X,X,X,X,X,X,X,X,X,X,X,X,X,X,X,X,X,X,X,X,X,X,X,X,X,X,X,X,X,X",
",X,X,X,X,X,X:.                  & c & 2 C d.,X,X,X,X,X|.G.K.[.,X,X,X,X,X,X,X,X,X,X,X,X,X,X,X,X,X",
",X,X,X,X,X'.&                               1.,X,X,X'.[.,X,X,X,X,X,X,X,X,X,X,X,X,X,X,X,X,X,X,X,X",
",X,X,X,X,XD.                                > !.!.m.'.,X*XK.K.G.!.,X,X,X,X,X,X,X,X,Xv.w.,X,X,X,X",
",X,X,X,X,X|.>                                 A &   C D.I.,X,X,X,X,X,X,X,X,X,X*Xa.x   ' ,X,X,X,X",
",X,X,X,X,X,Xy.>           C g.w.i                     D.,X,X,X,X,X,X,X,X,X,Xa.d       ) ,X,X,X,X",
",X,X,X,X,X,X,X!.4.L c / d.[.*X,XW.] d l g f i.)     > |.,X,X,X,X,X,X,X,X,X,XJ   o     ` ,X,X,X,X",
",X,X,X,X,X,X,X,X,X,X,X,X|..X,X,X,XW.E.,X,XOX'.!.' D g.,X,X,X,X,X,X,X,X,X,X,XK     o   _ ,X,X,X,X",
",X,X,X,X,X!.x.8.:.$.&.3.5.N.|.,X,XK._.I.L.I.n.,X,X,X{.x.3.$.:.y.L.,X,X,XY.L.A o o   o P L.L.L.|.",
",X,X,Xg.m o             : o : ! K.W.b     : e =X!.` :           o x x.,Xe o       o   o o     d.",
",X,Xo.  o         o   & o     o > m.b   o   e f.7     o o       o   o y.e     o o   o     o   d.",
",Xy.      o   f Q ` Y p o   o     x c     o o o   o m ) Y e   o   o   7 : o       o   o o   o f.",
"$Xi     o   1.=X,X,X,X,X$.    o o o p   o   o   C I.,X,X,X.XY   o   o   8.R.D     o   L R.R.R..X",
",X.XI.g.7.:.,X,X,X,X,X,X`.  o   o o o o   o   y .X,X,X,X,X,X'.&   o   o 5.,XK   o     ) ,X,X,X,X",
",X,X,X,X,X,X,X,X,X,X|.N.$.o   o   o o   o     | ,X,X,X,X,X,X,Xe o   o   $.,XK     o   ' ,X,X,X,X",
",X,X,X,X@XD.w. .H p o       o   o     o   o   8.,X,X,X,X,X,X,Xh   o   o $.,XK   o     ' ,X,X,X,X",
",X,XG.) 9               o     o   o o     o   i.,X,X,X,X,X,X,Xx o   o   &.,XK     o   ` ,X,X,X,X",
",Xw.o       o   7 C [ w.v.o o   o   : o o   o i.,X,X,X,X,X,X,Xx   o   o &.,XK o o     _ ,X,X,X,X",
"D.o   o     ) F.*X,X,X,X_.o   o   o o o   o   p.,X,X,X,X,X,X,Xx o       &.,XK   o   o ) ,X,X,X,X",
"|   o     b ,X,X,X,X,X,XF.  o   o   : o       y.,X,X,X,X,X,X,Xx         &.,X~ o   o o Y ,X,X,X,X",
"Q       o b ,X,X,X,X,X,X'       o   : o   o o i.,X,X,X,X,X,X,Xx         &.,X'         F ,X,X,X,X",
"=.    o   o [ [.,X*XZ.K           o     o     i.,X,X,X,X,X,X,Xx       o &.,X|       o : $.w.| v.",
"!.e o   o     : r 2   o o o o   o         o   i.,X,X,X,X,X,X,Xx o   o   &.,Xi.  o   o   o     :.",
",XZ.r o               , O.6.  o         o   o i.,X,X,X,X,X,X,Xx   o   o $.,X@Xl   o   o       / ",
",X,X{.3.m 2     2 m 1.W.,X|.W Y Y W Y Y Y W Y B.,X,X,X,X,X,X,XX.Y Q Y Y p.,X,X|.,.l :   o e m w.",
",X,X,X,X,X,X@X.X,X,X,X,X,X,X,X,X,X,X,X,X,X,X,X,X,X,X,X,X,X,X,X,X,X,X,X,X,X,X,X,X,X,X*X.X$X,X,X,X",
",X,X,X,X,X,X,X,X,X,X,X,X,X,X,X,X,X,X,X,X,X,X,X,X,X,X,X,X,X,X,X,X,X,X,X,X,X,X,X,X,X,X,X,X,X,X,X,X",
",X,X,X,X,X,X,X,X,X,X,X,X,X,X,X,X,X,X,X,X,X,X,X,X,X,X,X,X,X,X,X,X,X,X,X,X,X,X,X,X,X,X,X,X,X,X,X,X",
",X,X,X,X,X,X,X,X,X,X,X,X,X,X,X,X,X,X,X,X,X,X,X,X,X,X,X,X,X,X,X,X,X,X,X,X,X,X,X,X,X,X,X,X,X,X,X,X",
",X,X,X,X,X,X,X,X,X,X,X,X,X,X,X,X,X,X,X,X,X,X,X,X,X,X,X,X,X,X,X,X,X,X,X,X,X,X,X,X,X,X,X,X,X,X,X,X",
",X,X,X,X,X,X,X,X,X,X,X,X,X,X,X,X,X,X,X,X,X,X,X,X,X,X,X,X,X,X,X,X,X,X,X,X,X,X,X,X,X,X,X,X,X,X,X,X",
",X,X,X,X,X,X,X,X,X,X,X,X,X,X,X,X,X,X,X,X,X,X,X,X,X,X,X,X,X,X,X,X,X,X,X,X,X,X,X,X,X,X,X,X,X,X,X,X",
",X,X,X,X,X,X,X,X,X,X,X,X,X,X,X,X,X,X,X,X,X,X,X,X,X,X,X,X,X,X,X,X,X,X,X,X,X,X,X,X,X,X,X,X,X,X,X,X",
",X,X,X,X,X,X,X,X,X,X,X,X,X,X,X,X,X,X,X,X,X,X,X,X,X,X,X,X,X,X,X,X,X,X,X,X,X,X,X,X,X,X,X,X,X,X,X,X",
",X,X,X,X,X,X,X,X,X,X,X,X,X,X,X,X,X,X,X,X,X,X,X,X,X,X,X,X,X,X,X,X,X,X,X,X,X,X,X,X,X,X,X,X,X,X,X,X",
",X,X,X,X,X,X,X,X,X,X,X,X,X,X,X,X,X,X,X,X,X,X,X,X,X,X,X,X,X,X,X,X,X,X,X,X,X,X,X,X,X,X,X,X,X,X,X,X"
};
