/* XPM */
static char *icon64x64[] = {
/* columns rows colors chars-per-pixel */
"64 64 246 2",
"   c black",
".  c #000100",
"X  c #010101",
"o  c #010201",
"O  c #020202",
"+  c #020302",
"@  c #030403",
"#  c #040504",
"$  c gray2",
"%  c #050605",
"&  c #060606",
"*  c #060706",
"=  c #070707",
"-  c #070807",
";  c #080908",
":  c #090909",
">  c #090A09",
",  c gray4",
"<  c #0A0B0A",
"1  c #0B0C0B",
"2  c #0C0C0C",
"3  c #0C0D0C",
"4  c #0D0E0D",
"5  c #0E0E0E",
"6  c #0E0F0E",
"7  c gray6",
"8  c #0F100F",
"9  c #111111",
"0  c gray7",
"q  c #121312",
"w  c #141514",
"e  c #161616",
"r  c gray9",
"t  c #171817",
"y  c #191919",
"u  c #191A19",
"i  c #1A1B1A",
"p  c #1B1B1B",
"a  c #1B1C1B",
"s  c gray11",
"d  c #1C1D1C",
"f  c #1D1E1D",
"g  c #1E1F1E",
"h  c gray12",
"j  c #222222",
"k  c #222322",
"l  c #232323",
"z  c #232423",
"x  c gray14",
"c  c #242524",
"v  c gray15",
"b  c #262726",
"n  c #272827",
"m  c #2C2C2C",
"M  c #2C2D2C",
"N  c #2D2E2D",
"B  c gray18",
"V  c #2E2F2E",
"C  c #2F302F",
"Z  c #313131",
"A  c #323232",
"S  c #333433",
"D  c #343434",
"F  c #343534",
"G  c #393A39",
"H  c #3F403F",
"J  c gray25",
"K  c #404140",
"L  c #414141",
"P  c #434343",
"I  c #434443",
"U  c #444444",
"Y  c gray27",
"T  c #454645",
"R  c #464646",
"E  c gray28",
"W  c #484848",
"Q  c #494949",
"!  c gray29",
"~  c #4B4C4B",
"^  c #4D4E4D",
"/  c #4E4E4E",
"(  c gray31",
")  c #4F504F",
"_  c #515151",
"`  c gray32",
"'  c #535453",
"]  c gray33",
"[  c #545554",
"{  c #555555",
"}  c #565756",
"|  c #575857",
" . c #585958",
".. c #595A59",
"X. c #5A5B5A",
"o. c #5B5B5B",
"O. c #5D5E5D",
"+. c gray37",
"@. c #5F5F5F",
"#. c #5F605F",
"$. c #606060",
"%. c #626262",
"&. c #626362",
"*. c #656565",
"=. c #666766",
"-. c #676767",
";. c #686968",
":. c DimGray",
">. c #6A6B6A",
",. c #6B6C6B",
"<. c #6C6C6C",
"1. c #6D6D6D",
"2. c gray43",
"3. c #6F706F",
"4. c #717171",
"5. c #717271",
"6. c #727272",
"7. c gray45",
"8. c #737473",
"9. c #747474",
"0. c gray46",
"q. c #757675",
"w. c #767776",
"e. c gray47",
"r. c #797979",
"t. c #797A79",
"y. c #7D7E7D",
"u. c #7E7E7E",
"i. c #7E7F7E",
"p. c gray50",
"a. c #808080",
"s. c gray51",
"d. c #838383",
"f. c #868786",
"g. c #888888",
"h. c gray54",
"j. c #8D8D8D",
"k. c #8D8E8D",
"l. c gray56",
"z. c #909090",
"x. c #909190",
"c. c gray57",
"v. c #939393",
"b. c gray58",
"n. c #949594",
"m. c #959595",
"M. c #969796",
"N. c #979797",
"B. c #989898",
"V. c gray60",
"C. c #9A9A9A",
"Z. c #9B9B9B",
"A. c #9D9D9D",
"S. c #9D9E9D",
"D. c gray62",
"F. c #9F9F9F",
"G. c #A0A0A0",
"H. c gray63",
"J. c gray65",
"K. c #A7A7A7",
"L. c #A9A9A9",
"P. c #AAAAAA",
"I. c #ABACAB",
"U. c #ACACAC",
"Y. c #AFAFAF",
"T. c gray69",
"R. c #B1B1B1",
"E. c #B1B2B1",
"W. c #B2B2B2",
"Q. c gray70",
"!. c #B4B4B4",
"~. c gray71",
"^. c #B7B7B7",
"/. c gray72",
"(. c #B9BAB9",
"). c gray73",
"_. c #BABBBA",
"`. c #BBBCBB",
"'. c #BCBCBC",
"]. c gray",
"[. c gray75",
"{. c #C1C1C1",
"}. c gray76",
"|. c gray77",
" X c #C5C5C5",
".X c #C6C6C6",
"XX c gray78",
"oX c #C8C8C8",
"OX c gray79",
"+X c #C9CAC9",
"@X c #CACACA",
"#X c #CBCBCB",
"$X c gray80",
"%X c #CCCDCC",
"&X c #CDCDCD",
"*X c #CDCECD",
"=X c gray81",
"-X c #CFD0CF",
";X c #D0D0D0",
":X c gray82",
">X c #D3D4D3",
",X c gray83",
"<X c #D5D5D5",
"1X c #D5D6D5",
"2X c gray84",
"3X c #D7D7D7",
"4X c #D8D8D8",
"5X c #D8D9D8",
"6X c gray85",
"7X c #DADADA",
"8X c gray86",
"9X c #DBDCDB",
"0X c #DDDDDD",
"qX c gray87",
"wX c #DFDFDF",
"eX c gray88",
"rX c #E1E1E1",
"tX c #E2E2E2",
"yX c gray89",
"uX c #E3E4E3",
"iX c #E4E4E4",
"pX c gray90",
"aX c #E6E6E6",
"sX c #E7E7E7",
"dX c gray91",
"fX c #E9E9E9",
"gX c #EAEAEA",
"hX c gray92",
"jX c gray93",
"kX c #EEEEEE",
"lX c #EFEFEF",
"zX c gray94",
"xX c #F1F1F1",
"cX c #F3F3F3",
"vX c #F4F4F4",
"bX c gray96",
"nX c #F6F6F6",
"mX c gray97",
"MX c #F8F8F8",
"NX c #F9F9F9",
"BX c gray98",
"VX c #FBFBFB",
"CX c gray99",
"ZX c #FDFDFD",
"AX c #FEFEFE",
"SX c gray100",
/* pixels */
"SXSXSXSXSXSXSXSXSXSXSXSXSXSXSXSXSXSXSXSXSXSXSXSXSXSXSXSXSXSXSXSXSXSXSXSXSXSXSXSXSXSXSXSXSXSXSXSXSXSXSXSXSXSXSXSXSXSXSXSXSXSXSXSX",
"SXSXSXSXSXSXSXSXSXSXSXSXSXSXSXSXSXSXSXSXSXSXSXSXSXSXSXSXSXSXSXSXSXSXSXSXSXSXSXSXSXSXSXSXSXSXSXSXSXSXSXSXSXSXSXSXSXSXSXSXSXSXSXSX",
"SXSXSXSXSXSXSXSXSXSXSXSXSXSXSXSXSXSXSXSXSXSXSXSXSXSXSXSXSXSXSXSXSXSXSXSXSXSXSXSXSXSXSXSXSXSXSXSXSXSXSXSXSXSXSXSXSXSXSXSXSXSXSXSX",
"SXSXSXSXSXSXSXSXSXSXSXSXSXSXSXSXSXSXSXSXSXSXSXSXSXSXSXSXSXSXSXSXSXSXSXSXSXSXSXSXSXSXSXSXSXSXSXSXSXSXSXSXSXSXSXSXSXSXSXSXSXSXSXSX",
"SXSXSXSXSXSXSXSXSXSXSXSXSXSXSXSXSXSXSXSXSXSXSXSXSXSXSXSXSXSXSXSXSXSXSXSXSXSXSXSXSXSXSXSXSXSXSXSXSXSXSXSXSXSXSXSXSXSXSXSXSXSXSXSX",
"SXSXSXSXSXSXSXSXSXSXSXSXSXSXSXSXSXSXSXSXSXSXSXSXSXSXSXSXSXSXSXSXSXSXSXSXSXSXSXSXSXSXSXSXSXSXSXSXSXSXSXSXSXSXSXSXSXSXSXSXSXSXSXSX",
"SXSXSXSXSXSXSXSXSXSXSXSXSXSXSXSXSXSXSXSXSXSXSXSXSXSXSXSXSXSXSXSXSXSXSXSXSXSXSXSXSXSXSXSXSXSXSXSXSXSXSXSXSXSXSXSXSXSXSXSXSXSXSXSX",
"SXSXSXSXSXSXSXSXSXSXSXSXSXSXSXSXSXSXSXSXSXSXSXSXSXSXSXSXSXSXSXSXSXSXSXSXSXSXSXSXSXSXSXSXSXSXSXSXSXSXSXSXSXSXSXSXSXSXSXSXSXSXSXSX",
"SXSXSXSXSXSXSXSXSXSXSXSXSXSXSXSXSXSXSXSXSXSXSXSXSXSXSXSXSXSXSXSXSXSXSXSXSXSXSXSXSXSXSXSXSXSXSXSXSXSXSXSXSXSXSXSXSXSXSXSXSXSXSXSX",
"SXSXSXSXSXSXSXSXSXSXSXSXSXSXSXSXSXSXSXSXSXSXSXSXSXSXSXSXSXSXSXSXSXSXSXSXSXSXSXSXSXSXSXSXSXSXSXSXSXSXSXSXSXSXSXSXSXSXSXSXSXSXSXSX",
"SXSXSXSXSXSXSXSXSXSXSXSXSXSXSXSXSXSXSXSXSXSXSXSXSXSXSXSXSXSXSXSXSXSXSXSXSXSXSXSXSXSXSXSXSXSXSXSXSXSXSXSXSXSXSXSXSXSXSXSXSXSXSXSX",
"SXSXSXSXSXSXSXSXSXSXSXSXSXSXSXSXSXSXSXSXSXSXSXSXSXSXSXSXSXSXSXSXSXSXSXSXSXSXSXSXSXSXSXSXSXSXSXSXSXSXSXSXSXSXSXSXSXSXSXSXSXSXSXSX",
"SXSXSXSXSXSXSXSXSXSXSXSXSXSXSXSXSXSXSXSXSXSXSXSXSXSXSXSXSXSXSXSXSXSXSXSXSXSXSXSXSXSXSXSXSXSXSXSXSXSXSXSXSXSXSXSXSXSXSXSXSXSXSXSX",
"SXSXSXSXSXSXSXSXSXSXSXSXSXSXSXSXSXSXSXSXSXSXSXSXSXSXSXSXSXSXSXSXSXSXSXSXSXSXSXSXSXSXSXSXSXSXSXSXSXSXSXSXSXSXSXSXSXSXSXSXSXSXSXSX",
"SXSXSXSXSXSXSXSXSXSXSXSXSXSXSXSXSXSXSXSXSXSXSXSXSXSXSXSXSXSXSXSXSXSXSXSXSXSXSXSXSXSXSXSXSXSXSXSXSXSXSXSXSXSXSXSXSXSXSXSXSXSXSXSX",
"SXSXSXSXSXSXSXSXSXSXSXSXgXR.a.@.E E ` l.rXSXSXSXSXSXSXSXSXSXSXSXSXSXSXSXSXSXSXSXSXSXSXSXSXSXSXSXSXSXSXSXSXSXSXSXSXSXSXSXSXSXSXSX",
"SXSXSXSXSXSXSXSXSXCX!.! ; . . . . . . . 2 d.CXSXSXSXSXSXSXSXSXSXSXSXSXSXSXSXSXSXSXSXSXSXSXSXSXSXSXSXSXSXSXSXSXSXSXSXSXSXSXSXSXSX",
"SXSXSXSXSXSXSXSXdXE . . . . . . . . . . . . $.z.@.@.7.Y.bXSXSXSXSXSXSXSXSXSXrX@X7XSXSXSXSXSXSXSXSXSXSXSXSXSXSXSXSXSXSXSXSXSXSXSX",
"SXSXSXSXSXSXSXSXY . . . . . . . . . . . . . . . . . . . j }.SXSXSXSXSXSX8X|.<XBXSXSXSXSXSXSXSXSXSXSXSXSXSXSXSXSXSXSXSXSXSXSXSXSX",
"SXSXSXSXSXSXSX<X. . . . . . . . . . . . . . . . . . . . . 3 :XSXSXSXSX<XcXSXSXSXSXSXSXSXSXSXSXSXSXSXSXSXSXSXSXSXSXSXSXSXSXSXSXSX",
"SXSXSXSXSXSXSX^.. . . . . . . . . . . . . . . . . . . . . . Q SXSXcX:XcXSXSXSXbXuX<XgXSXSXSXSXSXSXSXSXSXSXSXSXSXcXb.0XSXSXSXSXSX",
"SXSXSXSXSXSXSX@X. . . . . . . . . . . . . . . . . . . . . . $ [.P ; v ~.8X|.|.*X0XrX<XrXSXSXSXSXSXSXSXSXSXSXgXi.e . :XSXSXSXSXSX",
"SXSXSXSXSXSXSXBXB . . . . . . . . . . j . . . . . . . . . . . . . . . . }.SXSXSXSXSXSXSXSXSXSXSXSXSXSXSX8X<.3 . . . =XSXSXSXSXSX",
"SXSXSXSXSXSXSXSX<Xm . . . . . . . 9 G.XX*X7.. . . . . . . . $ . . . . . Y.SXSXSXSXSXSXSXSXSXSXSXSXSXSX .$ . . . . . =XSXSXSXSXSX",
"SXSXSXSXSXSXSXSXSXbXL.` p @ ; m w.rXrXSXSXBXl.l . . . . . V @Xs . . . $ rXSXSXSXSXSXSXSXSXSXSXSXSXSXSX8 . . . . . . =XSXSXSXSXSX",
"SXSXSXSXSXSXSXSXSXSXSXSXSXgXlXSXSX8XCXSXSXSXSXcXZ.iXiXrX0X@XSXv.$ . . ;.SXSXSXSXSXSXSXSXSXSXSXSXSXSXSX8 . . . . . . :XSXSXSXSXSX",
"SXSXSXSXSXSXSXSXSXSXSXSXSXSXSXSXjXrXSXSXSXSXSXQ.mXSXSXSXSX@XSXSX8XY.[.BXSXSXSXSXSXSXSXSXSXSXSXSXSXSXSX8 . . . . . . :XSXSXSXSXSX",
"SXSXSXSXSXSXSX*XZ.w.@.` W E ` @.%.l.'.lXSXSXSX@X0X@X|.|.XXY.@XSXSXSXSX0XD.2.` Q ( -.x.*XSXSXSXSX@X|.|.3 . . . . . . D.|.|.|.|.bX",
"SXSXSXSXgXw.p . . . . . . . . @ 2 . . ; $.:X:XBXP . . . $ ; -.SXSX^.P $ . . . . . . . . M H.SXSXa . . . . . . . . . . . . . . 0X",
"SXSXSX^.t . . . . . . . . . . ; $ . . . . ; >.SXP . . . . 3 @.cXo.@ . . . . . . . . . . . . ` mXa . . . . . . . . . . . . . . 8X",
"SXSX^.; . . . . . . . . . . . . . . . . . . . H.P . . . . . P V . . . . . . . . . . . . . . . ,.p . . . . . . . . . . . . . . 0X",
"SXgXa . . . . . . 3 ^ 9.i.7. .j . . . . . . . V P . . . . . . . . . w ` w.w.` 3 . . . . . . . ; $ . . . . . . . . . . . . . . 8X",
"SXw.. . . . . . P iXSXSXSXSXSXSXd.. . . . . . . V . . . . . . . ; g.bXSXSXSXSXgXE . . . . . . . 7.*X*X3 . . . . . . K.*X*X*X*XmX",
"SX[.l.,.W l 1 t gXSXSXSXSXSXSXSXCXj . . . . . . 3 . . . . . . . Q.SXSXSXSXSXSXSXjXe . . . . . . 2.SXSX3 . . . . . . *XSXSXSXSXSX",
"SXSXSXSXSXSXlXiXSXSXSXSXSXSXSXSXSXP . . . . . . . . . . . . . ^ SXSXSXSXSXSXSXSXSX| . . . . . . ] SXSX8 . . . . . . :XSXSXSXSXSX",
"SXSXSXSXSXSXSXSXSXSXSXSXSXbX:XZ. .3 . . . . . . . . . . . . . Z.SXSXSXSXSXSXSXSXSXw.. . . . . . ~ SXSX8 . . . . . . :XSXSXSXSXSX",
"SXSXSXSXSXSXSXBX*XK.p.] m ; . . . . . . . . . . . . . . . . . ^.SXSXSXSXSXSXSXSXSXl.. . . . . . ~ SXSX8 . . . . . . =XSXSXSXSXSX",
"SXSXSXSX8Xd.H ; . . . . . . . . . . . . . . . . . . . . . . . =XSXSXSXSXSXSXSXSXSXb.. . . . . . ~ SXSX8 . . . . . . :XSXSXSXSXSX",
"SXSXrX] $ . . . . . . . . . . . 9 ; . . . . . . $ . . . . . . >XSXSXSXSXSXSXSXSXSXb.. . . . . . ~ SXSX8 . . . . . . :XSXSXSXSXSX",
"SX3Xs . . . . . . . $ p E 7.H.*XbXD . . . . . . ; . . . . . . >XSXSXSXSXSXSXSXSXSXb.. . . . . . ~ SXSX8 . . . . . . =XSXSXSXSXSX",
"BXB . . . . . . s x.8XSXSXSXSXSXSXS . . . . . . ; . . . . . . <XSXSXSXSXSXSXSXSXSXb.. . . . . . ~ SXSX3 . . . . . . =XSXSXSXSXSX",
"R.. . . . . . s iXSXSXSXSXSXSXSXSXl . . . . . . ; . . . . . . <XSXSXSXSXSXSXSXSXSXb.. . . . . . ~ SXSXw . . . . . . }.SXSXSXSXSX",
"w.. . . . . . -.SXSXSXSXSXSXSXSXgX- . . . . . . ; . . . . . . <XSXSXSXSXSXSXSXSXSXb.. . . . . . ~ SXSXv . . . . . . }.SXSXSXSXSX",
"2.. . . . . . V SXSXSXSXSXSXSXBX%.. . . . . . . $ . . . . . . <XSXSXSXSXSXSXSXSXSXb.. . . . . . ~ SXSXv . . . . . . L.SXSXSXSXSX",
"b.. . . . . . . >.bXSXSXSXSX:X! . . . . . . . . . . . . . . . <XSXSXSXSXSXSXSXSXSXb.. . . . . . ~ SXSXG . . . . . . B R.$XL.7.rX",
"gX8 . . . . . . . p @.w.>.V . . . . . . . . . . . . . . . . . <XSXSXSXSXSXSXSXSXSXb.. . . . . . ~ SXSX .. . . . . . . . . . . ^.",
"SXZ.$ . . . . . . . . . . . . . . l . . . . . . . . . . . . . <XSXSXSXSXSXSXSXSXSXb.. . . . . . ! SXSXY.. . . . . . . . . . . b.",
"SXSXD.9 . . . . . . . . . . . 3 i.bXB . . . . . . . . . . . . <XSXSXSXSXSXSXSXSXSXb.. . . . . . ~ SXSXBX^ . . . . . . . . . . 7.",
"SXSXSX0X2.p . . . . . . $ B a.iXSXSXb.e e e e e e e e e e e e <XSXSXSXSXSXSXSXSXSXZ.e e e e e e  .SXSXSXBXl.v . . . . . . . p g.",
"SXSXSXSXSXBX<XR.Z.Z.D._.uXSXSXSXSXSXSXSXSXSXSXSXSXSXSXSXSXSXSXSXSXSXSXSXSXSXSXSXSXSXSXSXSXSXSXSXSXSXSXSXSXSXSX<XR.Z.B.G.^.0XSXSX",
"SXSXSXSXSXSXSXSXSXSXSXSXSXSXSXSXSXSXSXSXSXSXSXSXSXSXSXSXSXSXSXSXSXSXSXSXSXSXSXSXSXSXSXSXSXSXSXSXSXSXSXSXSXSXSXSXSXSXSXSXSXSXSXSX",
"SXSXSXSXSXSXSXSXSXSXSXSXSXSXSXSXSXSXSXSXSXSXSXSXSXSXSXSXSXSXSXSXSXSXSXSXSXSXSXSXSXSXSXSXSXSXSXSXSXSXSXSXSXSXSXSXSXSXSXSXSXSXSXSX",
"SXSXSXSXSXSXSXSXSXSXSXSXSXSXSXSXSXSXSXSXSXSXSXSXSXSXSXSXSXSXSXSXSXSXSXSXSXSXSXSXSXSXSXSXSXSXSXSXSXSXSXSXSXSXSXSXSXSXSXSXSXSXSXSX",
"SXSXSXSXSXSXSXSXSXSXSXSXSXSXSXSXSXSXSXSXSXSXSXSXSXSXSXSXSXSXSXSXSXSXSXSXSXSXSXSXSXSXSXSXSXSXSXSXSXSXSXSXSXSXSXSXSXSXSXSXSXSXSXSX",
"SXSXSXSXSXSXSXSXSXSXSXSXSXSXSXSXSXSXSXSXSXSXSXSXSXSXSXSXSXSXSXSXSXSXSXSXSXSXSXSXSXSXSXSXSXSXSXSXSXSXSXSXSXSXSXSXSXSXSXSXSXSXSXSX",
"SXSXSXSXSXSXSXSXSXSXSXSXSXSXSXSXSXSXSXSXSXSXSXSXSXSXSXSXSXSXSXSXSXSXSXSXSXSXSXSXSXSXSXSXSXSXSXSXSXSXSXSXSXSXSXSXSXSXSXSXSXSXSXSX",
"SXSXSXSXSXSXSXSXSXSXSXSXSXSXSXSXSXSXSXSXSXSXSXSXSXSXSXSXSXSXSXSXSXSXSXSXSXSXSXSXSXSXSXSXSXSXSXSXSXSXSXSXSXSXSXSXSXSXSXSXSXSXSXSX",
"SXSXSXSXSXSXSXSXSXSXSXSXSXSXSXSXSXSXSXSXSXSXSXSXSXSXSXSXSXSXSXSXSXSXSXSXSXSXSXSXSXSXSXSXSXSXSXSXSXSXSXSXSXSXSXSXSXSXSXSXSXSXSXSX",
"SXSXSXSXSXSXSXSXSXSXSXSXSXSXSXSXSXSXSXSXSXSXSXSXSXSXSXSXSXSXSXSXSXSXSXSXSXSXSXSXSXSXSXSXSXSXSXSXSXSXSXSXSXSXSXSXSXSXSXSXSXSXSXSX",
"SXSXSXSXSXSXSXSXSXSXSXSXSXSXSXSXSXSXSXSXSXSXSXSXSXSXSXSXSXSXSXSXSXSXSXSXSXSXSXSXSXSXSXSXSXSXSXSXSXSXSXSXSXSXSXSXSXSXSXSXSXSXSXSX",
"SXSXSXSXSXSXSXSXSXSXSXSXSXSXSXSXSXSXSXSXSXSXSXSXSXSXSXSXSXSXSXSXSXSXSXSXSXSXSXSXSXSXSXSXSXSXSXSXSXSXSXSXSXSXSXSXSXSXSXSXSXSXSXSX",
"SXSXSXSXSXSXSXSXSXSXSXSXSXSXSXSXSXSXSXSXSXSXSXSXSXSXSXSXSXSXSXSXSXSXSXSXSXSXSXSXSXSXSXSXSXSXSXSXSXSXSXSXSXSXSXSXSXSXSXSXSXSXSXSX",
"SXSXSXSXSXSXSXSXSXSXSXSXSXSXSXSXSXSXSXSXSXSXSXSXSXSXSXSXSXSXSXSXSXSXSXSXSXSXSXSXSXSXSXSXSXSXSXSXSXSXSXSXSXSXSXSXSXSXSXSXSXSXSXSX",
"SXSXSXSXSXSXSXSXSXSXSXSXSXSXSXSXSXSXSXSXSXSXSXSXSXSXSXSXSXSXSXSXSXSXSXSXSXSXSXSXSXSXSXSXSXSXSXSXSXSXSXSXSXSXSXSXSXSXSXSXSXSXSXSX"
};
