/* XPM */
static char *icon32x32[] = {
/* columns rows colors chars-per-pixel */
"32 32 152 2",
"   c black",
".  c #000100",
"X  c #010101",
"o  c #010201",
"O  c gray1",
"+  c #030403",
"@  c #040404",
"#  c #040504",
"$  c #070807",
"%  c #080908",
"&  c #090909",
"*  c #0C0D0C",
"=  c #0D0E0D",
"-  c #0F100F",
";  c #111111",
":  c #121312",
">  c #141514",
",  c #181918",
"<  c #191A19",
"1  c #1A1B1A",
"2  c gray11",
"3  c #1C1D1C",
"4  c #1D1E1D",
"5  c #1F201F",
"6  c #212221",
"7  c gray14",
"8  c #262726",
"9  c #2C2D2C",
"0  c #2E2F2E",
"q  c #303130",
"w  c #333433",
"e  c #343534",
"r  c #353635",
"t  c #373837",
"y  c gray22",
"u  c #383938",
"i  c #393A39",
"p  c #3C3C3C",
"a  c #3C3D3C",
"s  c #3F3F3F",
"d  c gray25",
"f  c #414241",
"g  c #474847",
"h  c #4C4C4C",
"j  c gray30",
"k  c #4E4E4E",
"l  c #505050",
"z  c #505150",
"x  c gray32",
"c  c #525352",
"v  c #535453",
"b  c #555555",
"n  c #555655",
"m  c #565756",
"M  c gray36",
"N  c #5D5E5D",
"B  c #5E5F5E",
"V  c #5F5F5F",
"C  c #606060",
"Z  c #626362",
"A  c gray39",
"S  c #656565",
"D  c gray40",
"F  c #676767",
"G  c #676867",
"H  c #696A69",
"J  c #6A6A6A",
"K  c #6E6F6E",
"L  c #717171",
"P  c #767776",
"I  c #777777",
"U  c gray47",
"Y  c gray48",
"T  c #808080",
"R  c gray51",
"E  c #838383",
"W  c gray52",
"Q  c #858685",
"!  c gray53",
"~  c #888988",
"^  c #898989",
"/  c #8A8B8A",
"(  c gray56",
")  c #909090",
"_  c #909190",
"`  c #929392",
"'  c #959595",
"]  c #9D9D9D",
"[  c #A0A1A0",
"{  c #A2A2A2",
"}  c gray64",
"|  c #A4A5A4",
" . c #A5A5A5",
".. c #A5A6A5",
"X. c #A7A7A7",
"o. c #A7A8A7",
"O. c gray66",
"+. c #AAAAAA",
"@. c gray67",
"#. c #ABACAB",
"$. c gray68",
"%. c #AFAFAF",
"&. c gray69",
"*. c #B3B4B3",
"=. c gray71",
"-. c #B7B7B7",
";. c gray72",
":. c #BBBBBB",
">. c gray75",
",. c gray76",
"<. c gray77",
"1. c #C4C5C4",
"2. c #C8C8C8",
"3. c #CACACA",
"4. c gray80",
"5. c #CDCDCD",
"6. c #CDCECD",
"7. c gray81",
"8. c gray82",
"9. c gray84",
"0. c #D7D7D7",
"q. c gray85",
"w. c #DADADA",
"e. c gainsboro",
"r. c gray87",
"t. c #DFDFDF",
"y. c gray88",
"u. c #E1E1E1",
"i. c #E2E2E2",
"p. c gray89",
"a. c #E4E4E4",
"s. c gray90",
"d. c #E5E6E5",
"f. c #E6E6E6",
"g. c #E6E7E6",
"h. c #E7E7E7",
"j. c gray91",
"k. c #E9E9E9",
"l. c gray92",
"z. c #EEEEEE",
"x. c #F1F1F1",
"c. c gray95",
"v. c #F3F3F3",
"b. c #F4F4F4",
"n. c gray96",
"m. c #F6F6F6",
"M. c gray97",
"N. c gray98",
"B. c gray99",
"V. c #FDFDFD",
"C. c #FEFEFE",
"Z. c gray100",
/* pixels */
"Z.Z.Z.Z.Z.Z.Z.Z.Z.Z.Z.Z.Z.Z.Z.Z.Z.Z.Z.Z.Z.Z.Z.Z.Z.Z.Z.Z.Z.Z.Z.Z.",
"Z.Z.Z.Z.Z.Z.Z.Z.Z.Z.Z.Z.Z.Z.Z.Z.Z.Z.Z.Z.Z.Z.Z.Z.Z.Z.Z.Z.Z.Z.Z.Z.",
"Z.Z.Z.Z.Z.Z.Z.Z.Z.Z.Z.Z.Z.Z.Z.Z.Z.Z.Z.Z.Z.Z.Z.Z.Z.Z.Z.Z.Z.Z.Z.Z.",
"Z.Z.Z.Z.Z.Z.Z.Z.Z.Z.Z.Z.Z.Z.Z.Z.Z.Z.Z.Z.Z.Z.Z.Z.Z.Z.Z.Z.Z.Z.Z.Z.",
"Z.Z.Z.Z.Z.Z.Z.Z.Z.Z.Z.Z.Z.Z.Z.Z.Z.Z.Z.Z.Z.Z.Z.Z.Z.Z.Z.Z.Z.Z.Z.Z.",
"Z.Z.Z.Z.Z.Z.Z.Z.Z.Z.Z.Z.Z.Z.Z.Z.Z.Z.Z.Z.Z.Z.Z.Z.Z.Z.Z.Z.Z.Z.Z.Z.",
"Z.Z.Z.Z.Z.Z.Z.Z.Z.Z.Z.Z.Z.Z.Z.Z.Z.Z.Z.Z.Z.Z.Z.Z.Z.Z.Z.Z.Z.Z.Z.Z.",
"Z.Z.Z.Z.Z.Z.f.-.} ;.b.Z.Z.Z.Z.Z.Z.Z.Z.Z.Z.Z.Z.Z.Z.Z.Z.Z.Z.Z.Z.Z.",
"Z.Z.Z.Z.3.d . . . . 7 :.&.2.Z.Z.Z.Z.Z.j.b.Z.Z.Z.Z.Z.Z.Z.Z.Z.Z.Z.",
"Z.Z.Z.b.; . . . . . . . . . p x.Z.b.f.b.Z.Z.Z.Z.Z.Z.Z.Z.Z.Z.Z.Z.",
"Z.Z.Z.y.. . . . . . . . . . . E ( +.f.y.r.j.Z.Z.Z.Z.Z.q.H j.Z.Z.",
"Z.Z.Z.Z.h . . . @ A l . . . . . . . r.Z.Z.Z.Z.Z.Z.9.c + . j.Z.Z.",
"Z.Z.Z.Z.Z.>.E ^ 5.m.Z.+.V L U ] . 2 m.Z.Z.Z.Z.Z.Z.! . . . j.Z.Z.",
"Z.Z.Z.x.<.+.} +.&.l.Z.r.j.y.7.x.y.f.,.X.%.0.Z.Z.y.Y . . . 5.y.z.",
"Z.z.V $ . . . + @ @ k 5.6 . # %.! ; . . . . r 8.= . . . . . . K ",
"N.r . . + q a 5 . . . r 6 . . 4 . , a , . . . 4 & . . . . . . K ",
"7.a , & ,.Z.Z.Z.H . . . = . . . _ Z.Z.N.c . . . +.Y . . . 8.f.x.",
"Z.Z.Z.b.Z.Z.Z.q.H . . . . . . p Z.Z.Z.Z.*.. . . +.! . . . j.Z.Z.",
"Z.Z.q.) V w = . . . . . . . . A Z.Z.Z.Z.2.. . . } ! . . . j.Z.Z.",
"b.b . . . $ 0 M c . . . # . . H Z.Z.Z.Z.3.. . . } ^ . . . j.Z.Z.",
"I . . # } b.Z.Z.` . . . # . . H Z.Z.Z.Z.3.. . . } ^ . . . f.Z.Z.",
"p . . 8 Z.Z.Z.Z.b . . . # . . H Z.Z.Z.Z.3.. . . } ` . . . q.Z.Z.",
"A . . . C -.} g . . . . . . . H Z.Z.Z.Z.3.. . . +.} . . . r V E ",
"f.0 . . . . . @ S = . . . . . H Z.Z.Z.Z.3.. . . } j.> . . . . d ",
"Z.N.] A k b ! q.Z.+./ ^ / / ^ >.Z.Z.Z.Z.h.^ / ^ q.Z.y.E c k S } ",
"Z.Z.Z.Z.Z.Z.Z.Z.Z.Z.Z.Z.Z.Z.Z.Z.Z.Z.Z.Z.Z.Z.Z.Z.Z.Z.Z.Z.Z.Z.Z.Z.",
"Z.Z.Z.Z.Z.Z.Z.Z.Z.Z.Z.Z.Z.Z.Z.Z.Z.Z.Z.Z.Z.Z.Z.Z.Z.Z.Z.Z.Z.Z.Z.Z.",
"Z.Z.Z.Z.Z.Z.Z.Z.Z.Z.Z.Z.Z.Z.Z.Z.Z.Z.Z.Z.Z.Z.Z.Z.Z.Z.Z.Z.Z.Z.Z.Z.",
"Z.Z.Z.Z.Z.Z.Z.Z.Z.Z.Z.Z.Z.Z.Z.Z.Z.Z.Z.Z.Z.Z.Z.Z.Z.Z.Z.Z.Z.Z.Z.Z.",
"Z.Z.Z.Z.Z.Z.Z.Z.Z.Z.Z.Z.Z.Z.Z.Z.Z.Z.Z.Z.Z.Z.Z.Z.Z.Z.Z.Z.Z.Z.Z.Z.",
"Z.Z.Z.Z.Z.Z.Z.Z.Z.Z.Z.Z.Z.Z.Z.Z.Z.Z.Z.Z.Z.Z.Z.Z.Z.Z.Z.Z.Z.Z.Z.Z.",
"Z.Z.Z.Z.Z.Z.Z.Z.Z.Z.Z.Z.Z.Z.Z.Z.Z.Z.Z.Z.Z.Z.Z.Z.Z.Z.Z.Z.Z.Z.Z.Z."
};
