/* XPM */
static char *icon16x16[] = {
/* columns rows colors chars-per-pixel */
"16 16 86 1",
"  c black",
". c #000100",
"X c #010101",
"o c #010201",
"O c #020302",
"+ c #040504",
"@ c #050605",
"# c #0B0C0B",
"$ c #0D0E0D",
"% c #0E0F0E",
"& c gray6",
"* c #111111",
"= c #131313",
"- c gray8",
"; c #141514",
": c #151615",
"> c #181818",
", c #191A19",
"< c gray10",
"1 c #1C1D1C",
"2 c gray13",
"3 c #262726",
"4 c #2C2C2C",
"5 c #2C2D2C",
"6 c #333433",
"7 c #343534",
"8 c #353635",
"9 c #373837",
"0 c gray22",
"q c #3A3B3A",
"w c #3C3D3C",
"e c #414241",
"r c #454645",
"t c gray28",
"y c #484948",
"u c #4E4E4E",
"i c #535453",
"p c #5A5B5A",
"a c #5D5E5D",
"s c gray37",
"d c #646564",
"f c #656565",
"g c #6D6E6D",
"h c #6E6F6E",
"j c #6F706F",
"k c #747474",
"l c #797979",
"z c #868686",
"x c gray55",
"c c #8E8F8E",
"v c #959595",
"b c gray59",
"n c #999A99",
"m c #A6A7A6",
"M c gray66",
"N c #A8A9A8",
"B c gray71",
"V c #B6B6B6",
"C c gray72",
"Z c #C0C0C0",
"A c #C3C3C3",
"S c #C5C5C5",
"D c gray78",
"F c #CBCBCB",
"G c gray82",
"H c #D2D2D2",
"J c gray84",
"K c #D7D7D7",
"L c #D8D8D8",
"P c gainsboro",
"I c gray88",
"U c #E1E1E1",
"Y c gray89",
"T c #E6E6E6",
"R c #E7E7E7",
"E c #E9E9E9",
"W c #EAEAEA",
"Q c gray94",
"! c #F1F1F1",
"~ c #F3F3F3",
"^ c gray96",
"/ c gray97",
"( c gray99",
") c #FDFDFD",
"_ c #FEFEFE",
"` c gray100",
/* pixels */
"````````````````",
"````````````````",
"````````````````",
"```RJ```````````",
"``t  0sF(Q``````",
"`^= ,: 2uRQ`^xx`",
"``FbLYmBlKY`C g~",
"D,#: i=65: y@  9",
"AzQ~8 @%Y`e b j^",
"Hp33:  6``d b k`",
"5#R`q +8``d n j`",
"s yw1  8``d B@%y",
"`ZmKWDDF``LD^LMA",
"````````````````",
"````````````````",
"````````````````"
};
