/* XPM */
static char * mute_xpm[] = {
"14 14 3 1",
" 	c None",
".	c #000000",
"+	c #B70000",
"         ...  ",
"        ..... ",
"     ++ ......",
"     ++ ......",
"     ++ ......",
"     ++...... ",
"     ++..     ",
"++++++++++++  ",
"++++++++++++  ",
"   ..++       ",
"  ...++       ",
"  .. ++       ",
" .   ++       ",
".    ++       "};
