/* XPM */
static char * out_xpm[] = {
"22 11 3 1",
" 	c None",
".	c #000000",
"+	c #FFFFFF",
".................     ",
".++++++++++++++++.    ",
".++..++.++.+.....+.   ",
".+.++.+.++.+++.++++.  ",
".+.++.+.++.+++.+++++. ",
".+.++.+.++.+++.++++++.",
".+.++.+.++.+++.+++++. ",
".+.++.+.++.+++.++++.  ",
".++..+++..++++.+++.   ",
".++++++++++++++++.    ",
".................     "};
