/* XPM */
static char * pickup_xpm[] = {
"16 14 2 1",
" 	c None",
".	c #20A000",
"       ..       ",
"      ....      ",
"     ......     ",
"     . .. .     ",
"       ..       ",
"       ..       ",
"       ..       ",
"                ",
"                ",
"  ............  ",
" .............. ",
".....      .....",
".....       ....",
" ..          .. "};
