/* XPM */
static char * record_xpm[] = {
"9 9 3 1",
" 	c None",
".	c #FF0000",
"+	c #000000",
"  ....   ",
" ......  ",
"........ ",
"........+",
"........+",
"........+",
" ......++",
"  ....++ ",
"   ++++  "};
