/* XPM */
static char * redial_xpm[] = {
"14 10 2 1",
" 	c None",
".	c #000000",
"   ...  ...   ",
"  .. .......  ",
" ..   ....... ",
"..   .........",
".    .........",
".    .........",
"..   .........",
" ..   ....... ",
"  .. .......  ",
"   ...  ...   "};
